<svg width="63" height="63" viewBox="0 0 63 63" fill="none" xmlns="http://www.w3.org/2000/svg">
<path d="M12.0094 12.0094C12.7477 11.2712 13.7491 10.8565 14.7932 10.8565C15.8372 10.8565 16.8386 11.2712 17.577 12.0094L31.5 25.9324L45.423 12.0094C46.1656 11.2921 47.1602 10.8952 48.1926 10.9042C49.225 10.9132 50.2126 11.3273 50.9426 12.0573C51.6727 12.7874 52.0868 13.7749 52.0958 14.8073C52.1047 15.8397 51.7078 16.8344 50.9906 17.577L37.0676 31.5L50.9906 45.423C51.7078 46.1656 52.1047 47.1602 52.0958 48.1926C52.0868 49.225 51.6727 50.2126 50.9426 50.9426C50.2126 51.6727 49.225 52.0868 48.1926 52.0958C47.1602 52.1047 46.1656 51.7078 45.423 50.9906L31.5 37.0676L17.577 50.9906C16.8344 51.7078 15.8397 52.1047 14.8073 52.0958C13.7749 52.0868 12.7874 51.6727 12.0573 50.9426C11.3273 50.2126 10.9132 49.225 10.9042 48.1926C10.8952 47.1602 11.2921 46.1656 12.0094 45.423L25.9324 31.5L12.0094 17.577C11.2712 16.8386 10.8565 15.8372 10.8565 14.7932C10.8565 13.7491 11.2712 12.7477 12.0094 12.0094V12.0094Z" fill="black"/>
</svg>
